<?xml version="1.0" encoding="UTF-8"?>
<svg id="Layer_1" xmlns="http://www.w3.org/2000/svg" xmlns:i="http://ns.adobe.com/AdobeIllustrator/10.0/" version="1.1" viewBox="0 0 1440 451.9">
  <g>
    <g>
      <path d="M784.3,129c-21.3-21.3-50.7-34.5-83.2-34.5-65,0-117.7,52.7-117.7,117.7v121.9c0,65,52.7,117.7,117.7,117.7s117.7-52.7,117.7-117.7v-121.9c0-32.5-13.2-61.9-34.5-83.2ZM806,334.2c0,57.9-47.1,105-105,105s-105-47.1-105-105v-121.9c0-57.9,47.1-105,105-105s105,47.1,105,105v121.9Z" fill="#fff"/>
      <path d="M743.8,366.8v-6h-7.2v-25.6h-7.3c-.2-2.4-.3-9.6-.2-14.1h9v-25.2h-6.1v-48.5c.4,0,.8,0,1.1,0h3.1v-5.9h7.3v-8.8h-7.3v-12.9h-7c-.1-2.1-.1-6.5,0-9h9v-8.2h4.5v-7h-4.7v-5.9h-5.8v-6.4h-7v-6.4h-6.9v-5.9h-2c-.1-.1-.7-.2-1.4-.2s-2.5,0-3.9.2h-6.4v-7.3h-8.4v7.3h-6.1c-2.5-.2-4.9-.3-5.5,0h-.5v.8c-.1.7,0,1.7,0,2.7v1.6c0,.3,0,.6-.2.8h-6.6v6.4h-7v6.4h-5.8v5.9h-6v7h5.7v8.2h7.4c.1,2.5,0,7.4,0,9h-7.1v12.9h-7.3v8.8h7.2v5.9h4.9v47.9h-7.3v10.3h9.3c.2,1,.2,2.4.2,3.4h-9.5v10.3h9.6c.2,3,.1,9.3,0,13.2h-9.6v27.3h-4.9v6.9h-5.9v16h99.1v-15.9h-6.8ZM711.5,205.5h10.9v15h-10.9v-15ZM695.3,205.5h10.9v15h-10.9v-15ZM679.1,205.5h10.9v15h-10.9v-15ZM669.5,232.8v-8.9h11v2.8h35v2.8h13.2v3.2h-59.2ZM687,252.3v14.7h12.9v15.4h20.3v5.9h8.5v4.8h-54.9v-46h5.9v5.2h7.3ZM731.9,364.1h-61.7v-23.1h7l.2-18.5h8.2v5.6h13.6v5.9s5.7.3,6,0c.3-.3,0,6.4,0,6.4h13.7v6.7h6.8v6.4h6.3v10.6Z" fill="#fff"/>
    </g>
    <g>
      <path d="M80.9,417.5L4.5,129h46.7l56.1,228,56.1-228h44.7l56.1,228,55.7-228h47.5l-76.8,288.5h-51.2l-53.6-210.5-53.6,210.5h-51.2Z" fill="#fff"/>
      <path d="M432,417.5V129h43.9v288.5h-43.9Z" fill="#fff"/>
    </g>
    <g>
      <path d="M962.1,417.5v-248.3h-88.6v-40.2h221.1v40.2h-88.6v248.3h-43.9Z" fill="#fff"/>
      <path d="M1148.2,417.5V129h60.1l85.7,236.9,85.7-236.9h60.1v288.5h-43.9v-211.3l-77.6,210.9h-48.8l-77.6-210.9v211.3h-43.9Z" fill="#fff"/>
    </g>
  </g>
  <g>
    <path d="M548.7,39V.9h13.7c4.3,0,7.6,1,9.9,3.1s3.5,4.9,3.5,8.5-.5,4.5-1.6,6.3c-1.1,1.8-2.6,3.1-4.6,4.1-2,.9-4.4,1.4-7.3,1.4h-9.1v14.8h-4.6ZM553.3,19.7h9.1c2.9,0,5-.6,6.5-1.8,1.4-1.2,2.2-3,2.2-5.4s-.7-4.1-2.2-5.3c-1.5-1.2-3.6-1.8-6.5-1.8h-9.1v14.3Z" fill="#fff"/>
    <path d="M579.2,39l13.7-38.1h6.2l13.7,38.1h-5l-3.8-10.8h-16l-3.8,10.8h-5ZM589.6,23.6h12.9l-6.4-18.7-6.4,18.7Z" fill="#fff"/>
    <path d="M621.4,39V.9h4.6v36l-2.3-2.4h21.4v4.5h-23.7Z" fill="#fff"/>
    <path d="M650.8,39l13.7-38.1h6.2l13.7,38.1h-5l-3.8-10.8h-16l-3.8,10.8h-5ZM661.2,23.6h12.9l-6.4-18.7-6.4,18.7Z" fill="#fff"/>
    <path d="M706.8,39.9c-3.4,0-6.4-.8-9-2.4-2.6-1.6-4.6-3.9-6-6.8-1.4-3-2.1-6.5-2.1-10.6s.7-7.7,2.1-10.7c1.4-3,3.4-5.3,6-6.9C700.4.8,703.4,0,706.8,0s8.2,1.2,10.7,3.5c2.5,2.3,4.2,5.5,5,9.5l-4.9.3c-.5-2.7-1.7-4.9-3.4-6.4-1.8-1.6-4.2-2.4-7.4-2.4s-4.6.6-6.4,1.9c-1.8,1.2-3.3,3-4.3,5.3-1,2.3-1.6,5.1-1.6,8.3s.5,6,1.6,8.3c1,2.3,2.5,4,4.3,5.3,1.8,1.2,4,1.8,6.4,1.8s5.9-.9,7.7-2.6c1.8-1.7,3-4.1,3.4-7.1l4.9.3c-.5,2.8-1.4,5.2-2.7,7.3-1.4,2.1-3.2,3.7-5.4,4.9-2.2,1.2-4.9,1.7-7.9,1.7Z" fill="#fff"/>
    <path d="M733.3,39V.9h24v4.5h-19.3v12.3h18.7v4.4h-18.7v12.4h19.8v4.5h-24.4Z" fill="#fff"/>
    <path d="M800.4,39.9c-3.6,0-6.7-.8-9.3-2.4-2.6-1.6-4.6-3.9-6-6.8s-2.1-6.5-2.1-10.6.7-7.7,2.1-10.7,3.4-5.3,6-6.9C793.7.8,796.8,0,800.4,0s6.8.8,9.4,2.4c2.6,1.6,4.6,3.9,6,6.9s2.1,6.5,2.1,10.7-.7,7.7-2.1,10.6-3.4,5.3-6,6.8c-2.6,1.6-5.7,2.4-9.4,2.4ZM800.4,35.3c2.6,0,4.9-.6,6.8-1.8,1.9-1.2,3.3-3,4.3-5.3,1-2.3,1.5-5,1.5-8.3s-.5-6-1.5-8.3c-1-2.3-2.4-4.1-4.3-5.3-1.9-1.2-4.1-1.9-6.8-1.9s-4.9.6-6.7,1.9c-1.9,1.2-3.3,3-4.3,5.3-1,2.3-1.5,5.1-1.5,8.3s.5,6,1.5,8.3c1,2.3,2.4,4,4.3,5.3,1.9,1.2,4.1,1.8,6.7,1.8Z" fill="#fff"/>
    <path d="M827.7,39V.9h24v4.5h-21.6l2.3-2.4v17.5l-2.3-2.4h20.7v4.4h-20.7l2.3-2.4v18.8h-4.6Z" fill="#fff"/>
  </g>
</svg>
